<svg width="345" height="68" viewBox="0 0 345 68" fill="none" xmlns="http://www.w3.org/2000/svg">
<path fill-rule="evenodd" clip-rule="evenodd" d="M22.3961 49.8339C22.5187 46.8016 20.8946 43.969 18.2223 42.5518C20.3533 41.0578 21.6221 38.6118 21.6188 36.0018C21.6188 31.5321 17.7396 28.1852 12.5165 28.1852H0V58.5838H12.8652C18.1246 58.5838 22.3961 54.7047 22.3961 49.8339ZM12.2477 52.5192C13.4985 52.5773 14.6798 51.9406 15.3225 50.862C15.9652 49.7834 15.9652 48.4375 15.3225 47.3589C14.6798 46.2803 13.4985 45.6435 12.2477 45.7016H6.43617V52.5192H12.2477ZM15.2553 37.0266C15.2882 36.1327 14.9391 35.2672 14.2958 34.648C13.6517 34.0279 12.7741 33.714 11.8845 33.7855H6.43617V40.2677H11.8917C12.7802 40.337 13.6558 40.0221 14.2983 39.4023C14.9399 38.7833 15.2879 37.9191 15.2553 37.0266Z" fill="white"/>
<path d="M31.8689 48.6655V40.2291H38.1816V47.9436C38.1816 51.2758 39.9396 53.2664 42.8599 53.2664C45.7802 53.2664 47.4946 51.2321 47.4946 47.9436V40.2291H53.8146V48.6655C53.8146 54.9945 49.4559 59.2237 42.8599 59.2237C36.2638 59.2237 31.8689 54.9945 31.8689 48.6655Z" fill="white"/>
<path d="M47.5237 29.0077H53.8146V35.1253H47.5237V29.0077Z" fill="white"/>
<path d="M63.5488 29.0077H69.8398V35.1253H76.276V40.2294H69.9415V49.3512C69.9415 51.6189 71.2418 52.9168 73.5737 52.9168H76.4794V58.5604H71.9174C66.7815 58.5604 63.6215 55.3886 63.6215 50.1897V40.2148L63.5488 29.0077Z" fill="white"/>
<path fill-rule="evenodd" clip-rule="evenodd" d="M107.949 48.6145C108.03 47.9981 108.071 47.377 108.072 46.7552V46.726C108.072 39.9813 103.154 34.4324 95.9843 34.4324C89.0541 34.4324 83.8746 39.7917 83.8746 46.8281C83.8746 53.8645 89.0904 59.2238 95.9843 59.2238C101.276 59.325 106.004 55.9228 107.607 50.8603H100.975C99.9356 52.6184 98.0193 53.6627 95.9843 53.5801C92.9187 53.5801 90.8266 51.8155 90.2745 48.6145H107.949ZM101.759 44.2834H90.4416C91.1753 41.5053 93.0785 39.8647 95.948 39.8647C98.8174 39.8647 100.866 41.4178 101.759 44.2834Z" fill="white"/>
<path d="M139.404 44.3553V58.5593H133.091V45.3834C133.091 41.8397 131.754 40.1262 129.015 40.1262C125.761 40.1262 123.778 42.4668 123.778 46.2438V58.5593H117.465V35.1242H121.824L123.059 38.0408C124.989 35.7992 127.807 34.5266 130.759 34.5627C136.084 34.5627 139.404 38.4199 139.404 44.3553Z" fill="white"/>
<path fill-rule="evenodd" clip-rule="evenodd" d="M173.031 55.8399V35.1245H168.955L167.938 37.4505C165.825 35.5001 163.051 34.431 160.18 34.461C157.073 34.445 154.091 35.6841 151.905 37.8992C149.718 40.1143 148.512 43.1191 148.557 46.2369C148.542 50.5803 150.933 54.5722 154.762 56.5969C158.59 58.6216 163.222 58.344 166.783 55.8763V56.7513C166.783 60.1784 164.161 62.2492 160.972 62.2492C158.647 62.2492 156.184 61.1773 155.458 59.0627H149.203C150.278 64.422 154.775 67.6741 161.102 67.6741C168.483 67.6741 173.031 63.1752 173.031 55.8399ZM163.948 40.8868C165.821 42.0018 166.939 44.0539 166.863 46.2385C166.939 48.4231 165.821 50.4752 163.948 51.5901C162.075 52.7051 159.745 52.7051 157.871 51.5901C155.998 50.4752 154.881 48.4231 154.957 46.2385C154.881 44.0539 155.998 42.0018 157.871 40.8868C159.745 39.7719 162.075 39.7719 163.948 40.8868Z" fill="white"/>
<path fill-rule="evenodd" clip-rule="evenodd" d="M206.548 48.6145C206.629 47.998 206.67 47.377 206.672 46.7552L206.664 46.726C206.664 39.9813 201.746 34.4324 194.576 34.4324C187.646 34.4324 182.467 39.7917 182.467 46.8281C182.467 53.8645 187.682 59.2238 194.576 59.2238C199.855 59.3111 204.565 55.9111 206.163 50.8603H199.531C198.498 52.6066 196.599 53.6491 194.576 53.5801C191.518 53.5801 189.419 51.8155 188.874 48.6145H206.548ZM200.359 44.2834H189.048C189.782 41.5053 191.75 39.8647 194.584 39.8647C197.417 39.8647 199.465 41.4178 200.359 44.2834Z" fill="white"/>
<path d="M248.914 35.1335L241.279 58.5687H236.194L230.906 46.4501L225.719 58.5687H220.634L212.912 35.1335H219.334L223.946 49.0969L230.019 35.294H231.799L238.076 49.1479L242.63 35.1335H248.914Z" fill="white"/>
<path fill-rule="evenodd" clip-rule="evenodd" d="M267.867 34.449C260.632 34.449 255.241 39.7354 255.241 46.8446C255.241 53.9102 260.668 59.2403 267.867 59.2403C275.066 59.2403 280.485 53.9612 280.485 46.8446C280.485 39.7281 275.102 34.449 267.867 34.449ZM267.867 40.4139C271.506 40.4139 274.085 43.0388 274.085 46.8377C274.085 50.6366 271.506 53.2616 267.867 53.2616C264.227 53.2616 261.641 50.6366 261.641 46.8377C261.641 43.0388 264.227 40.4139 267.867 40.4139Z" fill="white"/>
<path fill-rule="evenodd" clip-rule="evenodd" d="M301.022 34.449C293.786 34.449 288.396 39.7354 288.396 46.8446C288.396 53.9102 293.823 59.2403 301.022 59.2403C308.221 59.2403 313.64 53.9612 313.64 46.8446C313.64 39.7281 308.257 34.449 301.022 34.449ZM301.021 40.4139C304.661 40.4139 307.247 43.0388 307.247 46.8377H307.233C307.233 50.6366 304.661 53.2616 301.021 53.2616C297.382 53.2616 294.796 50.6366 294.796 46.8377C294.796 43.0388 297.382 40.4139 301.021 40.4139Z" fill="white"/>
<path d="M345 44.3551V58.559H338.687V45.3832C338.687 41.8395 337.343 40.126 334.612 40.126C331.358 40.126 329.374 42.4666 329.374 46.2436V58.559H323.062V35.124H327.42L328.648 38.0406C330.579 35.8034 333.392 34.5315 336.341 34.5625C341.68 34.5625 345 38.4197 345 44.3551Z" fill="white"/>
<path d="M3.87918 13.1237C1.56184 13.1237 0 11.7602 0 9.77685H2.43357C2.43357 10.6008 3.07283 11.0164 3.97362 11.0164C4.70006 11.0164 5.28121 10.6956 5.28121 10.0831C5.28121 9.47061 4.48212 9.25186 3.5087 9.09144C2.05582 8.84353 0.159816 8.44979 0.159816 6.26232C0.159816 4.51234 1.61269 3.30194 3.87192 3.30194C6.13114 3.30194 7.56222 4.5488 7.56949 6.39356H5.2013C5.2013 5.66441 4.67826 5.29983 3.80654 5.29983C2.93481 5.29983 2.57159 5.65712 2.57159 6.18211C2.57159 6.7071 3.36341 6.94772 4.35863 7.12272C5.86236 7.39251 7.78742 7.71334 7.78742 9.96643C7.78742 11.8622 6.24737 13.0872 3.9155 13.0872L3.87918 13.1237Z" fill="white"/>
<path d="M10.0829 1.14709H12.531V3.56789H15.0808V5.58037H12.5746V9.18969C12.533 9.58409 12.6744 9.97579 12.958 10.2519C13.2416 10.5281 13.636 10.658 14.0275 10.6043H15.1607V12.8282H13.3592C12.4663 12.9052 11.5854 12.5814 10.9531 11.944C10.3209 11.3066 10.0023 10.4209 10.0829 9.5251V1.14709Z" fill="white"/>
<path d="M16.7082 8.91884V3.56683H19.2072V8.67093C19.2072 9.9907 19.8973 10.7709 21.0523 10.7709C22.2073 10.7709 22.8829 9.96883 22.8829 8.67093V3.56683H25.3819V8.91884C25.3819 11.4198 23.6602 13.0896 21.0232 13.0896C18.3863 13.0896 16.7082 11.4198 16.7082 8.91884Z" fill="white"/>
<path fill-rule="evenodd" clip-rule="evenodd" d="M36.9248 12.8212V0.221375H34.4186V4.02757C33.6661 3.53357 32.7823 3.2794 31.8833 3.29841C30.5822 3.26367 29.3244 3.76871 28.4061 4.69457C27.4878 5.62043 26.9903 6.88525 27.0307 8.19105C26.9905 9.49813 27.4876 10.7643 28.4054 11.6924C29.3232 12.6206 30.5809 13.1289 31.8833 13.0983C32.9452 13.112 33.9766 12.7419 34.7891 12.0556L35.0869 12.8212H36.9248ZM33.4042 5.87757C34.2036 6.36019 34.6721 7.24652 34.6221 8.18155C34.6721 9.11658 34.2036 10.0029 33.4042 10.4855C32.6048 10.9682 31.6052 10.9682 30.8057 10.4855C30.0063 10.0029 29.5378 9.11658 29.5879 8.18155C29.5378 7.24652 30.0063 6.36019 30.8057 5.87757C31.6052 5.39494 32.6048 5.39494 33.4042 5.87757Z" fill="white"/>
<path fill-rule="evenodd" clip-rule="evenodd" d="M41.8065 0H39.3221L39.3294 2.32601H41.8065V0ZM41.8211 3.56681H39.3221V12.8271H41.8211V3.56681Z" fill="white"/>
<path fill-rule="evenodd" clip-rule="evenodd" d="M48.5769 3.18176C45.8206 3.18176 43.5862 5.42451 43.5862 8.19107C43.5862 10.9576 45.8206 13.2004 48.5769 13.2004C51.3331 13.2004 53.5675 10.9576 53.5675 8.19107C53.5675 5.42451 51.3331 3.18176 48.5769 3.18176ZM49.8429 5.933C50.6241 6.40486 51.0816 7.27134 51.0321 8.18515C51.0816 9.09897 50.6241 9.96545 49.8429 10.4373C49.0617 10.9092 48.0846 10.9092 47.3034 10.4373C46.5222 9.96545 46.0647 9.09897 46.1142 8.18515C46.0647 7.27134 46.5222 6.40486 47.3034 5.933C48.0846 5.46115 49.0617 5.46115 49.8429 5.933Z" fill="white"/>
</svg>
